<?xml version="1.0" encoding="utf-8"?>
<!-- Generator: Adobe Illustrator 23.0.1, SVG Export Plug-In . SVG Version: 6.00 Build 0)  -->
<svg version="1.1" id="Layer_1" xmlns="http://www.w3.org/2000/svg" xmlns:xlink="http://www.w3.org/1999/xlink" x="0px" y="0px"
	 viewBox="0 0 847 117" style="enable-background:new 0 0 847 117;" xml:space="preserve">
<style type="text/css">
	.st0{fill:#EC3666;}
	.st1{fill:#FFFFFF;}
	.st2{fill:#45C2F0;}
	.st3{fill:#06064F;}
</style>
<path class="st0" d="M41.4,78.8c-6-4.4-9.2-11.7-10.2-18.9C31.1,59,30.9,58,30.9,57c0-9.4,6.1-19.4,16.7-23.6
	c2.7-1.1,5.5-1.7,8.3-1.8V0.7C43.7,0.9,31.4,5,21.6,12.7C4.3,26.4-3.9,50.6,1.8,72c5.6,21.5,25.1,39.2,47.2,42
	c2.4,0.3,4.7,0.5,7.1,0.5V83.1C50.9,83.2,45.7,81.9,41.4,78.8z"/>
<path class="st1" d="M124.7,57H93.6c0.1,0.1,0.1,0.1,0.1,0.1l0.1,0.1c-3.8,3.9-9.5,9.7-18.1,17.9c-5.2,4.8-12.5,7.7-19.7,7.9v31.3
	c10.3,0,20.4-2.7,29.4-8c8.4-5,15.7-11.6,22.6-18.4c5.6-5.6,10.9-11.4,16-17.5c2.5-2.9,5-6.1,5.8-9.9c0.3-1.2,0.3-2.4,0.3-3.6
	L124.7,57L124.7,57z"/>
<path class="st2" d="M124.7,57L124.7,57l5.4,0.1c-0.1-3.2-1.4-6.5-3.1-9.2c-2.4-3.8-5.6-6.9-8.8-10.1C107.4,26.7,97.5,14.4,84,7.2
	c-8.5-4.6-18.2-6.7-27.9-6.5v30.9c7.1-0.2,14.5,2.7,19.6,7.7c8,7.7,17.1,16.9,18,17.7L124.7,57L124.7,57z"/>
<path class="st3" d="M197.2,27.1c23.7,0,38,8.2,40.9,25.4h-22.6c-1.8-4.9-7.2-8.2-18.3-8.2c-12.4,0-19,4.1-19,13.4
	c0,9.4,6.6,13.4,19,13.4c11.1,0,16.5-3.3,18.3-8.2h22.6c-2.9,17.2-17.2,25.4-40.9,25.4c-26.4,0-41.1-10.3-41.1-30.7
	C156.2,37.5,170.8,27.1,197.2,27.1z"/>
<path class="st3" d="M245.8,57.8c0-19.1,13.7-30.7,41.1-30.7s41.1,11.6,41.1,30.7c0,19.1-13.7,30.7-41.1,30.7S245.8,76.9,245.8,57.8
	z M304.9,57.8c0-9.4-5.9-13.4-18.1-13.4s-18,4.1-18,13.4c0,9.4,5.8,13.4,18,13.4C299.1,71.3,304.9,67.2,304.9,57.8z"/>
<path class="st3" d="M336.5,86.6V29h22v13.5c7.1-9,16.9-15.4,33-15.4c17.5,0,29.2,7.6,29.2,28.7v30.8h-22V64.1
	c0-12.6-4.3-18.7-18.1-18.7c-14.1,0-22.2,6.1-22.2,18.7v22.6L336.5,86.6L336.5,86.6z"/>
<path class="st3" d="M470.6,27.1c23.7,0,38,8.2,40.9,25.4h-22.6c-1.8-4.9-7.2-8.2-18.3-8.2c-12.4,0-19,4.1-19,13.4
	c0,9.4,6.6,13.4,19,13.4c11.1,0,16.5-3.3,18.3-8.2h22.6c-2.9,17.2-17.2,25.4-40.9,25.4c-26.4,0-41.1-10.3-41.1-30.7
	C429.5,37.5,444.2,27.1,470.6,27.1z"/>
<path class="st3" d="M579.8,30v19.2c-6.3-2.3-10.2-2.9-14.8-2.9c-6.6,0-14.8,1.9-22.8,12.1v28.2h-22V29h22v12.5
	c6-10.5,13.4-14.4,23.6-14.4C571.2,27.1,575.1,28,579.8,30z"/>
<path class="st3" d="M646.4,66H668c-3.9,14.3-15.4,22.6-39.6,22.6c-25.9,0-41.9-10.3-41.9-30.7c0-20.3,17-30.7,40.9-30.7
	c24.7,0,40.9,10.9,40.9,34.3h-59.5c1.5,8.4,8.8,10.7,20.3,10.7C640.1,72.2,644.5,69.7,646.4,66z M609.6,50.6h36
	c-2.5-6.6-8.6-9-18.1-9C618.2,41.5,612.1,43.9,609.6,50.6z"/>
<path class="st3" d="M756.1,57.2v29.4h-22v-7.7c-10.3,6.3-23,8.6-32.7,8.6c-15,0-26.6-4.7-26.6-18.3c0-15.8,17.3-19.7,33.1-19.7
	c9.8,0,18.7,1.4,26.2,2.9c-0.6-8-7.8-10-17.9-10c-10.3,0-20.1,1.4-33.7,4.6l-3.1-15c12.5-2.8,25.9-4.9,40.9-4.9
	C744.4,27.1,755.9,35.2,756.1,57.2z M734,69.3v-4.4c-7.4-1-15.6-1.9-23-1.9c-9.7,0-13.3,1.2-13.3,4.7c0,3.3,2.9,4.5,11.1,4.5
	C715.8,72.2,727.7,70.4,734,69.3z"/>
<path class="st3" d="M846.4,57.8c0,23.2-16.6,30.7-31.5,30.7c-10.5,0-20.8-3.3-26.7-12.2v33.3h-22V29h22v10.3
	c5.9-8.9,16.2-12.2,26.7-12.2C829.8,27.1,846.4,34.6,846.4,57.8z M823.3,57.8c0-8.4-5.8-12.5-17.5-12.5c-11.7,0-17.5,4.1-17.5,12.5
	s5.9,12.5,17.5,12.5C817.5,70.3,823.3,66.2,823.3,57.8z"/>
</svg>
