<svg width="847" height="117" viewBox="0 0 847 117" fill="none" xmlns="http://www.w3.org/2000/svg">
<path d="M41.3925 78.805C35.3758 74.4233 32.1713 67.0986 31.1903 59.9048C31.0595 58.9892 30.9287 58.0082 30.9287 57.0272C30.9287 47.6751 37.0108 37.6691 47.6708 33.4182C50.3522 32.3064 53.1643 31.7178 55.9765 31.587V0.65332C43.6815 0.914916 31.3865 4.96965 21.642 12.6867C4.31131 26.3551 -3.86356 50.6181 1.76075 72.0036C7.38506 93.4544 26.8739 111.243 48.9788 113.99C51.3331 114.251 53.6875 114.447 56.0419 114.447V83.056C50.8753 83.1868 45.7088 81.9442 41.3925 78.805Z" fill="#EC3666"/>
<path d="M124.711 57.0293H93.6464C93.7118 57.0947 93.7118 57.0947 93.7118 57.0947L93.8426 57.2255C90.0495 61.1494 84.3598 66.9045 75.7925 75.1448C70.5606 79.9189 63.3013 82.8618 56.1074 83.058V114.384C66.3751 114.384 76.5119 111.703 85.4715 106.405C93.908 101.435 101.167 94.8298 108.034 87.963C113.593 82.3387 118.956 76.5181 123.992 70.436C126.477 67.4931 128.962 64.3539 129.812 60.5608C130.074 59.3836 130.139 58.2064 130.139 56.9639H124.711V57.0293Z" fill="white"/>
<path d="M124.711 56.9613V57.0267H130.074C129.943 53.8221 128.7 50.5522 127 47.8054C124.646 44.0123 121.376 40.8731 118.236 37.6686C107.446 26.6815 97.5049 14.3865 83.9674 7.19266C75.4655 2.61473 65.7211 0.521967 56.1074 0.718164V31.6519C63.2359 31.4557 70.5606 34.3332 75.7271 39.3035C83.7058 47.0206 92.8616 56.1765 93.7118 57.0267H124.711C124.711 57.0267 124.711 56.9613 124.711 56.9613Z" fill="#45C2F0"/>
<path d="M197.239 27.1377C220.913 27.1377 235.235 35.378 238.113 52.5779H215.55C213.719 47.673 208.356 44.403 197.239 44.403C184.878 44.403 178.207 48.4577 178.207 57.8098C178.207 67.2272 184.813 71.2166 197.239 71.2166C208.356 71.2166 213.719 67.9466 215.55 63.0417H238.113C235.235 80.2416 220.913 88.4819 197.239 88.4819C170.883 88.4819 156.168 78.1489 156.168 57.7444C156.168 37.4707 170.817 27.1377 197.239 27.1377Z" fill="white"/>
<path d="M245.765 57.8103C245.765 38.7138 259.498 27.0728 286.835 27.0728C314.172 27.0728 327.906 38.7138 327.906 57.8103C327.906 76.9067 314.172 88.5478 286.835 88.5478C259.498 88.5478 245.765 76.9067 245.765 57.8103ZM304.885 57.8103C304.885 48.3928 298.999 44.4035 286.835 44.4035C274.671 44.4035 268.785 48.4582 268.785 57.8103C268.785 67.2277 274.606 71.217 286.835 71.217C299.065 71.2824 304.885 67.2277 304.885 57.8103Z" fill="white"/>
<path d="M336.539 86.5853V29.0343H358.578V42.5064C365.707 33.4814 375.451 27.1377 391.604 27.1377C409.066 27.1377 420.838 34.724 420.838 55.8478V86.6507H398.798V64.0881C398.798 51.5315 394.482 45.384 380.748 45.384C366.622 45.384 358.578 51.5315 358.578 64.0881V86.6507H336.539V86.5853Z" fill="white"/>
<path d="M470.606 27.1377C494.28 27.1377 508.602 35.378 511.48 52.5779H488.917C487.086 47.673 481.724 44.403 470.606 44.403C458.245 44.403 451.575 48.4577 451.575 57.8098C451.575 67.2272 458.18 71.2166 470.606 71.2166C481.724 71.2166 487.086 67.9466 488.917 63.0417H511.48C508.602 80.2416 494.28 88.4819 470.606 88.4819C444.25 88.4819 429.535 78.1489 429.535 57.7444C429.535 37.4707 444.185 27.1377 470.606 27.1377Z" fill="white"/>
<path d="M579.823 30.0152V49.1771C573.479 46.8882 569.62 46.2996 564.977 46.2996C558.372 46.2996 550.197 48.1962 542.218 58.3984V86.5853H520.179V29.0343H542.218V41.5255C548.235 31.0616 555.625 27.1377 565.827 27.1377C571.19 27.1377 575.114 27.9879 579.823 30.0152Z" fill="white"/>
<path d="M646.399 65.9851H667.98C664.122 80.3075 652.546 88.5478 628.348 88.5478C602.451 88.5478 586.493 78.2147 586.493 57.8103C586.493 37.4712 603.497 27.0728 627.433 27.0728C652.088 27.0728 668.373 37.9944 668.373 61.4072H608.86C610.364 69.7783 617.623 72.1326 629.199 72.1326C640.055 72.198 644.502 69.7129 646.399 65.9851ZM609.644 50.551H645.614C643.129 43.9457 636.981 41.5259 627.498 41.5259C618.212 41.5259 612.064 43.9457 609.644 50.551Z" fill="white"/>
<path d="M756.072 57.1563V86.5858H734.033V78.9341C723.765 85.2778 711.078 87.5668 701.333 87.5668C686.291 87.5668 674.781 82.858 674.781 69.2551C674.781 53.4939 692.047 49.57 707.873 49.57C717.683 49.57 726.577 50.9434 734.098 52.4475C733.509 44.4689 726.316 42.4415 716.244 42.4415C705.976 42.4415 696.167 43.8803 682.564 47.0194L679.49 31.9777C691.981 29.1655 705.388 27.0728 720.364 27.0728C744.366 27.1382 755.876 35.1822 756.072 57.1563ZM733.967 69.3205V64.9387C726.577 63.8924 718.402 63.0422 711.012 63.0422C701.333 63.0422 697.671 64.2847 697.671 67.7509C697.671 71.0208 700.548 72.2634 708.789 72.2634C715.786 72.198 727.689 70.4322 733.967 69.3205Z" fill="white"/>
<path d="M846.388 57.8098C846.388 81.0264 829.777 88.5473 814.931 88.5473C804.467 88.5473 794.134 85.2774 788.248 76.3831V109.671H766.209V29.0343H788.248V39.3019C794.134 30.4076 804.467 27.1377 814.931 27.1377C829.777 27.1377 846.388 34.5932 846.388 57.8098ZM823.302 57.8098C823.302 49.3733 817.482 45.3186 805.775 45.3186C794.069 45.3186 788.248 49.3733 788.248 57.8098C788.248 66.2463 794.134 70.301 805.775 70.301C817.482 70.301 823.302 66.2463 823.302 57.8098Z" fill="white"/>
</svg>
